<svg version="1.0" xmlns="http://www.w3.org/2000/svg" width="300pt" height="100pt" viewBox="0 0 300 200" preserveAspectRatio="xMidYMid meet" class="svelte-1qq69ma">
<g transform="translate(0.000000,205.000000) scale(0.100000,-0.100000)" fill="white" stroke="none">
<path d="M485 1459 c-187 -209 -341 -388 -343 -397 -2 -15 510 -596 654 -742
l44 -45 50 50 49 50 -305 343 -306 344 19 21 c11 12 107 119 214 237 107 118
237 262 288 319 l94 104 -54 48 c-30 27 -56 48 -59 48 -3 0 -158 -171 -345
-380z"></path><path d="M2115 1790 l-49 -50 25 -27 c208 -226 575 -638 577 -647 1 -7 -133
-164 -299 -350 l-301 -338 48 -49 c27 -27 51 -49 54 -49 3 0 77 80 165 177 88
98 245 272 349 387 169 186 188 210 177 227 -17 28 -683 769 -690 769 -4 0
-29 -22 -56 -50z"></path><path d="M1520 1313 c-47 -87 -75 -92 -435 -79 -219 8 -220 8 -265 -16 -34
-17 -51 -35 -70 -73 -23 -47 -25 -62 -28 -227 -4 -172 -3 -178 16 -178 16 0
20 9 25 47 4 37 12 54 36 75 l31 28 208 0 c360 1 423 18 478 128 l32 63 6 -36
c4 -20 23 -53 43 -76 57 -62 97 -70 388 -76 143 -2 262 -9 278 -15 31 -12 51
-45 61 -100 4 -24 13 -38 21 -38 22 0 21 305 0 377 -18 61 -67 109 -121 119
-21 4 -130 3 -243 -2 -251 -10 -314 -8 -351 11 -40 20 -69 54 -78 87 l-7 28
-25 -47z"></path></g></svg>
